<?xml version="1.0" standalone="no"?>
<!DOCTYPE svg PUBLIC "-//W3C//DTD SVG 20010904//EN"
 "http://www.w3.org/TR/2001/REC-SVG-20010904/DTD/svg10.dtd">
<svg version="1.0" xmlns="http://www.w3.org/2000/svg"
 width="85.000000pt" height="85.000000pt" viewBox="0 0 85.000000 85.000000"
 preserveAspectRatio="xMidYMid meet">
<metadata>
Created by potrace 1.14, written by Peter Selinger 2001-2017
</metadata>
<g transform="translate(0.000000,85.000000) scale(0.100000,-0.100000)"
fill="#000000" stroke="none">
<path d="M350 791 c-154 -49 -229 -209 -170 -362 10 -29 16 -57 13 -62 -3 -6
-1 -7 5 -4 13 9 86 -119 76 -135 -4 -6 -3 -8 4 -4 6 3 24 -18 43 -51 47 -85
66 -103 109 -103 25 0 43 7 57 22 27 31 183 302 199 347 21 59 17 149 -10 206
-24 52 -88 118 -125 130 -12 3 -19 9 -17 13 6 10 -154 12 -184 3z m168 -47
c124 -51 176 -208 106 -321 -98 -159 -322 -147 -400 21 -13 28 -24 67 -24 87
0 44 19 101 31 93 5 -3 6 1 3 9 -8 21 54 87 101 108 49 23 133 24 183 3z"/>
<path d="M398 679 c-11 -6 -18 -22 -18 -39 0 -23 -4 -27 -20 -23 -23 6 -27 -8
-34 -130 -3 -48 -8 -93 -12 -99 -4 -6 -3 -8 3 -5 6 4 58 7 117 8 87 1 106 4
102 15 -3 7 -11 52 -17 99 -7 47 -16 85 -20 85 -5 0 -6 7 -2 16 4 12 0 15 -17
12 -19 -2 -23 2 -24 25 -1 16 -8 32 -16 37 -18 12 -21 12 -42 -1z"/>
</g>
</svg>
